<svg id="icon-webstories" width="17" height="16" viewBox="0 0 17 16" xmlns="http://www.w3.org/2000/svg">
    <path d="M12.4001 1.60004C13.2838 1.60004 14.0001 2.31638 14.0001 3.20005V12.8C14.0001 13.6837 13.2838 14.4 12.4001 14.4V1.60004Z"/>
    <path d="M0.400024 1.60004C0.400024 0.716373 1.11637 3.05176e-05 2.00003 3.05176e-05H9.20007C10.0838 3.05176e-05 10.8001 0.716373 10.8001 1.60004V14.4C10.8001 15.2837 10.0838 16 9.20007 16H2.00003C1.11637 16 0.400024 15.2837 0.400024 14.4V1.60004Z"/>
    <path d="M15.6001 3.20005C16.2629 3.20005 16.8001 3.73731 16.8001 4.40005V11.6C16.8001 12.2628 16.2629 12.8 15.6001 12.8V3.20005Z"/>
</svg>
